<svg width="47" height="47" viewBox="0 0 47 47" fill="none" xmlns="http://www.w3.org/2000/svg">
<g id="ICP-token 1">
<g id="Group">
<path id="Vector" d="M35.4636 12.6538C32.8449 12.6538 29.9908 13.9956 26.9737 16.6385C25.5425 17.8908 24.3064 19.2326 23.3794 20.306C23.3794 20.306 23.3794 20.306 23.3876 20.3141V20.306C23.3876 20.306 24.8513 21.8999 26.4696 23.6076C27.3397 22.5748 28.592 21.168 30.0315 19.8994C32.7149 17.5493 34.4631 17.0532 35.4636 17.0532C39.2288 17.0532 42.2861 20.0377 42.2861 23.7052C42.2861 27.3483 39.2203 30.3329 35.4636 30.357C35.2925 30.357 35.0732 30.3329 34.7967 30.2758C35.8946 30.7474 37.0737 31.0891 38.1957 31.0891C45.0919 31.0891 46.4417 26.592 46.531 26.2668C46.7342 25.4454 46.8401 24.5834 46.8401 23.697C46.8401 17.6143 41.7332 12.6538 35.4636 12.6538Z" fill="url(#paint0_linear_1_1940)"/>
<path id="Vector_2" d="M11.3766 34.773C13.9951 34.773 16.8494 33.4309 19.8664 30.788C21.2976 29.5357 22.5337 28.1939 23.4607 27.1206C23.4607 27.1206 23.4607 27.1206 23.4526 27.1125V27.1206C23.4526 27.1206 21.9888 25.5267 20.3706 23.819C19.5004 24.8518 18.2481 26.2586 16.8088 27.5272C14.1252 29.8773 12.3768 30.3735 11.3766 30.3735C7.6115 30.3651 4.5539 27.3809 4.5539 23.7133C4.5539 20.0702 7.61963 17.0858 11.3766 17.0614C11.5474 17.0614 11.7669 17.0858 12.0434 17.1427C10.9456 16.671 9.76647 16.3295 8.64427 16.3295C1.74839 16.3295 0.406582 20.8265 0.309031 21.1436C0.10572 21.9731 0 22.827 0 23.7133C0 29.8121 5.10689 34.773 11.3766 34.773Z" fill="url(#paint1_linear_1_1940)"/>
<path id="Vector_3" d="M38.1794 30.9913C34.6501 30.902 30.9826 28.1207 30.2345 27.4296C28.2992 25.6406 23.8346 20.8021 23.4849 20.4199C20.2159 16.7523 15.784 12.6538 11.3764 12.6538H11.3683H11.3602C6.00932 12.6782 1.51237 16.3051 0.308838 21.1436C0.3983 20.8265 2.16291 16.24 8.63595 16.4027C12.1652 16.4921 15.849 19.3139 16.6053 20.0051C18.5407 21.7942 23.0051 26.6327 23.3548 27.0149C26.6238 30.6742 31.0559 34.7726 35.4634 34.7726H35.4714H35.4795C40.8303 34.7484 45.3356 31.1217 46.5308 26.283C46.4334 26.6001 44.6607 31.1458 38.1794 30.9913Z" fill="#29ABE2"/>
</g>
</g>
<defs>
<linearGradient id="paint0_linear_1_1940" x1="29.5413" y1="14.1123" x2="45.0094" y2="30.1297" gradientUnits="userSpaceOnUse">
<stop offset="0.21" stop-color="#F15A24"/>
<stop offset="0.6841" stop-color="#FBB03B"/>
</linearGradient>
<linearGradient id="paint1_linear_1_1940" x1="17.2988" y1="33.3145" x2="1.83089" y2="17.2969" gradientUnits="userSpaceOnUse">
<stop offset="0.21" stop-color="#ED1E79"/>
<stop offset="0.8929" stop-color="#522785"/>
</linearGradient>
</defs>
</svg>
